Coordinates
version=1
nRows=26
nColumns=33
inDegrees=yes

Units are S.I. units (second, meters, Newtons, ...)
Angles are in degrees.

endheader
time	ground_thorax_rot_x	ground_thorax_rot_y	ground_thorax_rot_z	ground_thorax_tx	ground_thorax_ty	ground_thorax_tz	clav_prot_r	clav_elev_r	scapula_abduction_r	scapula_elevation_r	scapula_upward_rot_r	scapula_winging_r	shoulder_elv_r	plane_of_elev_r	axial_rot_r	elbow_flexion_r	pro_sup_r	wrist_flex_r	wrist_dev_r	clav_prot_l	clav_elev_l	scapula_abduction_l	scapula_elevation_l	scapula_upward_rot_l	scapula_winging_l	shoulder_elv_l	plane_of_elev_l	axial_rot_l	elbow_flexion_l	pro_sup_l	wrist_flex_l	wrist_dev_l	
4.3500	-4.616429	4.929357	11.044960	-0.106631	1.028176	0.009979	17.836552	-11.781734	44.999955	-12.631431	24.908094	-13.863957	-2.417875	-53.151252	117.878413	-32.738344	-136.328513	3.780192	-5.978921	24.600270	-10.842148	-37.011484	-4.753704	-21.938676	12.394229	58.567007	3.093570	13.056168	12.563537	23.380028	14.924009	-6.755945	
4.3600	-4.605540	4.886566	11.040715	-0.106729	1.028130	0.009917	17.847811	-11.748833	44.985887	-12.590713	24.858015	-13.885973	-2.469150	-53.183834	117.819573	-32.764779	-136.548134	3.874844	-5.996396	24.566778	-10.840548	-36.956809	-4.755450	-21.935374	12.363069	58.566990	3.060751	13.041356	12.587699	23.318566	14.851872	-6.800676	
4.3700	-4.579642	4.836508	11.055915	-0.106798	1.028051	0.009882	17.871090	-11.694798	44.974404	-12.525088	24.782149	-13.926410	-2.567921	-53.217817	117.709552	-32.826141	-136.979157	4.063371	-6.029831	24.500123	-10.843503	-36.846355	-4.757332	-21.937237	12.296636	58.553349	2.996304	13.011620	12.636539	23.198524	14.708790	-6.890609	
4.3800	-4.538810	4.778230	11.083813	-0.106873	1.027941	0.009870	17.904845	-11.626258	44.961471	-12.439749	24.678494	-13.979795	-2.707668	-53.259516	117.551604	-32.920042	-137.631688	4.339678	-6.082681	24.400694	-10.846550	-36.681189	-4.762934	-21.944318	12.196508	58.534323	2.897551	12.968881	12.711681	23.017792	14.502286	-7.022242	
4.3900	-4.485851	4.705008	11.125656	-0.106931	1.027811	0.009876	17.953475	-11.560903	44.946648	-12.347128	24.537939	-14.036583	-2.899251	-53.314923	117.333527	-33.058475	-138.649806	4.734695	-6.175139	24.251212	-10.851682	-36.432217	-4.773551	-21.961133	12.044888	58.515732	2.750186	12.911121	12.835989	22.736807	14.218250	-7.210965	
4.4000	-4.432414	4.623054	11.162963	-0.107023	1.027677	0.009878	18.006733	-11.522151	44.921474	-12.270641	24.373680	-14.076095	-3.104340	-53.388349	117.094601	-33.218749	-139.934474	5.186603	-6.301852	24.072823	-10.853776	-36.135029	-4.791504	-21.985482	11.864819	58.515651	2.574008	12.847380	12.996979	22.386083	13.911418	-7.423420	
4.4100	-4.380964	4.531778	11.192055	-0.107128	1.027552	0.009868	18.065437	-11.527462	44.878096	-12.221929	24.173771	-14.085630	-3.329717	-53.485022	116.837968	-33.416044	-141.708936	5.742108	-6.483910	23.849248	-10.858925	-35.761649	-4.814181	-22.021255	11.638125	58.545945	2.363760	12.754567	13.207025	21.916248	13.571674	-7.669114	
4.4200	-4.341755	4.445632	11.199642	-0.107306	1.027445	0.009827	18.113068	-11.584523	44.800894	-12.211854	23.953584	-14.049815	-3.528329	-53.599283	116.613000	-33.619451	-143.721081	6.308914	-6.692785	23.620195	-10.862305	-35.378366	-4.842874	-22.066387	11.406171	58.615479	2.152630	12.654341	13.438333	21.398100	13.268955	-7.899067	
4.4300	-4.310135	4.363109	11.199731	-0.107512	1.027349	0.009763	18.145000	-11.686544	44.665279	-12.227887	23.686295	-13.964305	-3.714611	-53.714114	116.399684	-33.858056	-145.971061	6.900856	-6.928343	23.378507	-10.865635	-34.972156	-4.882014	-22.132895	11.160429	58.711159	1.930542	12.587131	13.730402	20.822109	12.993768	-8.121358	
4.4400	-4.291630	4.299400	11.206875	-0.107786	1.027264	0.009675	18.150347	-11.831631	44.448696	-12.266274	23.362913	-13.819915	-3.874388	-53.822906	116.214595	-34.114692	-148.264693	7.476930	-7.152658	23.157176	-10.872065	-34.596400	-4.931466	-22.229603	10.931318	58.829125	1.710522	12.573431	14.061466	20.241971	12.774856	-8.311302	
4.4500	-4.277269	4.250857	11.232668	-0.108063	1.027170	0.009580	18.130573	-11.996544	44.143844	-12.302915	22.966729	-13.629481	-4.044259	-53.913656	116.023947	-34.423259	-150.684828	8.095066	-7.371253	22.935740	-10.879410	-34.217426	-4.995146	-22.358677	10.698970	58.948517	1.479902	12.631830	14.460373	19.621377	12.565175	-8.499490	
4.4600	-4.269815	4.224002	11.279813	-0.108376	1.027061	0.009478	18.082025	-12.167778	43.759371	-12.331267	22.517351	-13.402179	-4.213141	-53.986560	115.835776	-34.754389	-152.974562	8.697501	-7.554152	22.738667	-10.881264	-33.877127	-5.074566	-22.513896	10.490251	59.058059	1.253324	12.776812	14.896113	19.016123	12.386024	-8.670429	
4.4700	-4.270918	4.213173	11.340278	-0.108686	1.026947	0.009365	18.004473	-12.355352	43.296900	-12.360681	22.018478	-13.131702	-4.398361	-54.048673	115.633229	-35.123081	-155.250026	9.326400	-7.710937	22.551607	-10.870900	-33.552919	-5.175379	-22.693451	10.293489	59.155963	1.028420	13.004250	15.381360	18.374028	12.215872	-8.849315	
4.4800	-4.278659	4.220502	11.413193	-0.109032	1.026832	0.009237	17.905396	-12.554497	42.784042	-12.392494	21.493292	-12.831480	-4.591045	-54.117684	115.426874	-35.497408	-157.436924	9.958653	-7.834756	22.381979	-10.852108	-33.257465	-5.290152	-22.888956	10.115489	59.241417	0.812849	13.275963	15.873700	17.715402	12.064188	-9.028310	
4.4900	-4.287831	4.237424	11.482651	-0.109387	1.026706	0.009099	17.791363	-12.746914	42.244378	-12.415384	20.959821	-12.521825	-4.797805	-54.192443	115.216396	-35.887844	-159.526804	10.594533	-7.939923	22.215011	-10.819267	-32.968143	-5.418056	-23.086698	9.944781	59.312135	0.606481	13.583807	16.372711	17.027509	11.925287	-9.213457	
4.5000	-4.290345	4.257845	11.557781	-0.109767	1.026562	0.008959	17.673666	-12.913965	41.703021	-12.415252	20.427203	-12.225531	-5.014383	-54.275339	114.995246	-36.280100	-161.318223	11.185822	-8.020896	22.052422	-10.777320	-32.687614	-5.553646	-23.284238	9.781873	59.358870	0.402007	13.927963	16.865131	16.345462	11.816901	-9.394993	
4.5100	-4.292115	4.276805	11.639240	-0.110154	1.026411	0.008821	17.552971	-13.067131	41.152068	-12.398472	19.882927	-11.933365	-5.251680	-54.364662	114.761742	-36.693657	-162.852928	11.752844	-8.079648	21.889667	-10.728175	-32.407617	-5.698319	-23.487644	9.620750	59.392938	0.187366	14.312166	17.359771	15.639655	11.741681	-9.578272	
4.5200	-4.306847	4.295995	11.733039	-0.110563	1.026295	0.008667	17.432002	-13.257788	40.580895	-12.404045	19.309024	-11.610949	-5.510240	-54.489106	114.522545	-37.120455	-164.301643	12.356068	-8.120941	21.724559	-10.682569	-32.122499	-5.849814	-23.711549	9.454390	59.442316	-0.044143	14.683960	17.832060	14.809340	11.719121	-9.771587	
4.5300	-4.334371	4.314563	11.829490	-0.110982	1.026202	0.008503	17.305545	-13.467558	39.989929	-12.419248	18.716658	-11.268490	-5.789945	-54.636343	114.294804	-37.557472	-165.652404	12.983002	-8.151593	21.558148	-10.633996	-31.835390	-6.008988	-23.945879	9.286654	59.503215	-0.287832	15.053938	18.276374	13.874570	11.738517	-9.966317	
4.5400	-4.369388	4.332364	11.928708	-0.111414	1.026125	0.008328	17.172534	-13.687758	39.382640	-12.438506	18.112743	-10.912184	-6.084506	-54.808299	114.089190	-37.991277	-166.888173	13.621484	-8.177616	21.393769	-10.581420	-31.552228	-6.175276	-24.187800	9.121522	59.567240	-0.539610	15.414887	18.683791	12.851984	11.795807	-10.157021	
4.5500	-4.402179	4.348816	12.029304	-0.111854	1.026043	0.008150	17.033335	-13.888404	38.769105	-12.439078	17.509206	-10.564337	-6.391265	-54.994652	113.919664	-38.412339	-167.991568	14.239532	-8.209302	21.234016	-10.524016	-31.277889	-6.344677	-24.427478	8.962575	59.618347	-0.799242	15.776132	19.055844	11.820817	11.865398	-10.334616	
4.5600	-4.433972	4.362692	12.129737	-0.112312	1.025957	0.007962	16.889896	-14.079576	38.151971	-12.429609	16.905943	-10.219708	-6.700648	-55.204100	113.790906	-38.810885	-168.917307	14.836289	-8.251597	21.082465	-10.460751	-31.018596	-6.517922	-24.664863	8.813592	59.658504	-1.066056	16.124860	19.383490	10.762341	11.962891	-10.502535	
4.5700	-4.450841	4.370689	12.233265	-0.112773	1.025838	0.007778	16.746688	-14.221204	37.546531	-12.377853	16.311699	-9.909665	-7.007100	-55.418169	113.697145	-39.176993	-169.492455	15.350845	-8.309826	20.937509	-10.390871	-30.772391	-6.691260	-24.890406	8.674206	59.664836	-1.344256	16.491027	19.679794	9.759514	12.080735	-10.653371	
4.5800	-4.476788	4.379082	12.328165	-0.113246	1.025729	0.007586	16.595609	-14.377887	36.922040	-12.333625	15.703965	-9.581295	-7.295679	-55.653518	113.638554	-39.510301	-169.773783	15.846993	-8.385233	20.804147	-10.315383	-30.547074	-6.868319	-25.114111	8.547711	59.676936	-1.632630	16.820223	19.922883	8.651408	12.264968	-10.811944	
4.5900	-4.509986	4.388272	12.423141	-0.113735	1.025630	0.007386	16.437084	-14.542450	36.282362	-12.291985	15.087450	-9.240602	-7.573801	-55.906482	113.610013	-39.792982	-169.811670	16.308966	-8.463754	20.681136	-10.237734	-30.340116	-7.047372	-25.338563	8.431607	59.692376	-1.933347	17.108250	20.108786	7.481323	12.492974	-10.975600	
4.6000	-4.565879	4.401416	12.514720	-0.114247	1.025560	0.007173	16.266723	-14.751402	35.613525	-12.282508	14.454965	-8.858979	-7.850867	-56.190060	113.616116	-40.028689	-169.792404	16.783097	-8.526413	20.569806	-10.159040	-30.153028	-7.232238	-25.574083	8.325587	59.738172	-2.245481	17.319037	20.226792	6.198319	12.756945	-11.155799	
